PathFileType  4	(X/Y/Z) C:\Users\antoi\Documents\MyRepositories\mobilecap\ResultsAnalysis
DataRate	CameraRate	NumFrames	NumMarkers	Units	OrigDataRate	OrigDataStartFrame	OrigNumFrames
100.0	100.0	5	51	mm	100.0	991	1321
Frame#	Time	r_knee			r_shank_antsup			r_ankle			r_calc			r_5meta			r_toe			L_knee			L_shank_antsup			L_ankle			L_calc			L_5meta			L_toe			r_sh2			r_sh3			r_sh4			L_sh2			L_sh3			r_thigh1			r_thigh2			r_thigh3			r_thigh4			r_thigh5			L_thigh1			L_thigh2			L_thigh3			L_thigh4			r.ASIS			r.PSIS			L.ASIS			L.PSIS			C7			R_Shoulder			L_Shoulder			R_Sternum			L_Sternum			R_humerus			R_elbow_med			R_elbow_lat			R_forearm			R_wrist_radius			R_wrist_ulna			L_humerus			L_elbow_med			L_elbow_lat			L_forearm			L_wrist_radius			L_wrist_ulna			R_HJC			L_HJC			R_HJC_reg			L_HJC_reg			
		X1	Y1	Z1	X2	Y2	Z2	X3	Y3	Z3	X4	Y4	Z4	X5	Y5	Z5	X6	Y6	Z6	X7	Y7	Z7	X8	Y8	Z8	X9	Y9	Z9	X10	Y10	Z10	X11	Y11	Z11	X12	Y12	Z12	X13	Y13	Z13	X14	Y14	Z14	X15	Y15	Z15	X16	Y16	Z16	X17	Y17	Z17	X18	Y18	Z18	X19	Y19	Z19	X20	Y20	Z20	X21	Y21	Z21	X22	Y22	Z22	X23	Y23	Z23	X24	Y24	Z24	X25	Y25	Z25	X26	Y26	Z26	X27	Y27	Z27	X28	Y28	Z28	X29	Y29	Z29	X30	Y30	Z30	X31	Y31	Z31	X32	Y32	Z32	X33	Y33	Z33	X34	Y34	Z34	X35	Y35	Z35	X36	Y36	Z36	X37	Y37	Z37	X38	Y38	Z38	X39	Y39	Z39	X40	Y40	Z40	X41	Y41	Z41	X42	Y42	Z42	X43	Y43	Z43	X44	Y44	Z44	X45	Y45	Z45	X46	Y46	Z46	X47	Y47	Z47	X48	Y48	Z48	X49	Y49	Z49	X50	Y50	Z50	X51	Y51	Z51	

991	9.90000000	-185.31476	456.19273	-379.90451	-142.58314	388.98770	-371.48134	-280.35794	84.36340	-381.89654	-334.24342	54.22605	-429.26773	-177.13877	42.17040	-347.76679	-136.99442	63.05296	-397.92624	-172.51358	455.60612	-772.10514	-139.14412	361.27129	-771.76186	-278.89809	92.72585	-788.13376	-337.16533	52.25438	-741.89396	-183.97422	44.14368	-827.99774	-131.20559	61.25875	-778.42184	-184.36844	283.84811	-363.93454	-210.18510	416.72300	-349.70529	-258.72760	311.23330	-344.51195	-211.79432	401.31240	-807.37043	-251.10779	286.26075	-821.13190	-288.56457	688.13451	-360.78621	-221.58766	597.32316	-359.85284	-308.11013	533.17534	-393.46495	-378.28817	626.45051	-390.46774	-264.51005	541.91753	-362.02748	-285.93474	713.05814	-782.64354	-207.61207	598.80931	-780.73310	-381.79331	654.39339	-772.25314	-302.28331	540.12002	-756.80248	-273.50260	825.71581	-466.46679	-451.23366	925.98339	-536.44813	-269.52365	827.73842	-678.02472	-448.35120	923.91372	-619.25703	-206.20943	1283.19842	-572.46267	-138.22294	1250.96949	-435.97959	-144.52859	1242.26091	-708.23763	-91.47552	1203.07309	-555.21500	-97.58630	1198.31504	-586.26010	-79.93676	1179.23577	-374.76696	-13.18094	973.05865	-347.51413	8.98505	1014.09174	-294.46998	92.81209	1055.55078	-310.12273	223.47451	1076.50845	-355.49896	233.85900	1044.51310	-336.53200	-101.44123	1164.63917	-779.33766	-7.03182	960.86242	-772.76382	-0.33561	999.12755	-830.19773	102.53883	1027.42857	-827.84569	224.29945	1047.03235	-796.52879	230.87492	1010.16472	-812.16423	-378.12407	771.98673	-469.92831	-373.34849	775.45083	-677.34971	-361.94877	792.85094	-497.34551	-357.09245	789.36321	-636.87807	
992	9.91000000	-188.40742	457.63508	-380.39924	-145.89977	390.54791	-372.02068	-280.55148	84.45954	-381.63707	-334.31357	54.23012	-429.19075	-177.10084	42.28710	-347.63687	-137.14745	63.34462	-398.00927	-176.06449	456.96486	-770.92660	-142.46061	363.22512	-771.33501	-279.08654	92.84043	-788.34300	-337.14917	52.35415	-741.99975	-183.97342	44.14289	-828.00160	-131.21892	61.28919	-778.42581	-186.80339	285.01444	-364.12806	-213.87353	417.92808	-350.15973	-261.59703	311.72200	-345.36038	-215.47132	402.54961	-806.77287	-253.66708	286.94258	-820.26981	-286.24557	691.83890	-361.42705	-221.32092	599.64832	-360.34340	-309.62062	537.68702	-393.88506	-377.41812	632.60827	-390.49915	-265.70381	545.21022	-362.52447	-283.54962	717.03832	-782.20954	-208.01128	601.01852	-780.17973	-380.83009	660.67196	-772.02411	-303.97913	544.52593	-756.13152	-269.55551	832.90791	-467.40005	-448.98370	931.81029	-536.26635	-266.23872	835.68125	-678.13203	-446.12387	929.77632	-619.12247	-209.72856	1292.94561	-572.46855	-141.61484	1261.30678	-435.59653	-147.78542	1252.51215	-708.56248	-94.19333	1214.29616	-555.03196	-100.14939	1209.48203	-586.28440	-83.64514	1188.89584	-374.59149	-17.83663	982.15574	-348.09143	4.65099	1022.78904	-294.87983	88.64800	1063.83937	-309.97713	219.51255	1084.66379	-355.32115	229.68324	1052.64161	-336.53597	-104.90035	1174.32093	-779.57424	-11.86187	969.49277	-772.07195	-5.13996	1007.63339	-829.77950	97.94353	1035.39162	-827.51512	219.82355	1054.53758	-796.64056	226.12838	1017.42798	-812.00142	-373.82435	778.21061	-470.36355	-369.59732	782.31979	-677.78783	-357.89660	799.77193	-498.10026	-353.09950	796.36042	-637.08745	
993	9.92000000	-191.46250	459.05790	-380.88614	-149.25751	392.05777	-372.65999	-280.79170	84.67221	-381.15072	-334.32796	54.24743	-429.10139	-177.09815	42.33886	-347.58340	-137.20129	63.59170	-398.06542	-179.54941	458.43091	-770.11033	-145.80595	365.07038	-770.91668	-279.26109	92.91511	-788.34571	-337.21991	52.41454	-742.02927	-183.97350	44.13996	-828.00451	-131.23480	61.31083	-778.42550	-189.19524	286.24504	-364.26387	-217.68371	419.03449	-350.54497	-264.39683	312.33935	-346.12005	-219.28424	403.62440	-805.77061	-256.27728	287.61957	-819.54553	-283.76816	695.48590	-361.57860	-221.07237	602.04702	-360.81320	-311.13895	542.18581	-394.16649	-376.46417	638.58192	-390.69697	-266.68606	548.44878	-363.02525	-281.10188	720.91859	-781.65839	-208.36352	603.07996	-779.54161	-379.71841	666.73563	-771.57433	-305.59607	548.95364	-755.49420	-266.10546	840.14899	-466.95898	-446.68162	937.32695	-536.07730	-262.98528	843.26075	-677.96923	-443.85769	935.40634	-619.03162	-213.21421	1302.33084	-572.51358	-145.86371	1271.45201	-435.93080	-151.09203	1262.30749	-708.73779	-96.93302	1225.15263	-554.78754	-102.93595	1220.12084	-586.30981	-87.41962	1198.12900	-374.38476	-22.35713	990.92531	-348.69237	0.49990	1030.79425	-296.09520	84.44973	1071.87583	-309.96672	215.49464	1092.48348	-355.23115	225.51371	1060.59466	-336.51047	-108.34552	1183.66948	-779.74406	-16.95333	978.18495	-771.95765	-9.80839	1015.89095	-829.32901	93.38959	1043.02655	-827.35151	215.40326	1061.83872	-796.76558	221.48356	1024.57199	-811.92243	-369.95354	784.46144	-470.22709	-365.69529	788.77047	-677.64676	-354.19284	806.12323	-497.67874	-349.45461	802.90126	-636.85762	
994	9.93000000	-194.45390	460.42106	-381.41916	-152.63514	393.56932	-373.15363	-280.99411	84.74743	-380.85618	-334.32947	54.25532	-429.05060	-177.14336	42.31982	-347.61287	-137.19796	63.65392	-398.05308	-182.98938	460.00199	-769.72107	-149.14788	366.73601	-770.33073	-279.45371	92.98560	-788.32220	-337.32490	52.35007	-742.03177	-183.97939	44.13707	-828.00299	-131.27624	61.34863	-778.43194	-191.53469	287.47998	-364.46682	-221.52604	419.84398	-351.19820	-266.95411	312.91865	-346.63935	-223.07132	404.63808	-804.81485	-258.89551	288.32488	-819.18156	-281.20413	698.98158	-361.72431	-220.83199	604.24759	-361.33441	-312.51686	546.48444	-394.41672	-375.38392	644.38605	-390.87562	-267.66958	551.61968	-363.37004	-278.67598	724.66629	-781.11236	-208.64367	605.13561	-779.03619	-378.40890	672.60907	-771.00194	-307.10866	553.26113	-754.92084	-262.75254	847.48655	-466.05114	-444.30642	942.45872	-535.77720	-259.71993	850.50182	-677.53686	-441.57891	940.67178	-618.85108	-216.69148	1311.30974	-572.57813	-150.80827	1281.26242	-436.73753	-154.51419	1271.73239	-708.92465	-99.74585	1235.53848	-554.65928	-105.78318	1230.38290	-586.37700	-91.22908	1206.92273	-374.14159	-26.88974	999.36700	-349.25403	-3.78437	1038.54089	-297.02367	80.23410	1079.82381	-310.22118	211.37885	1099.90238	-355.24078	221.30295	1068.06888	-336.35043	-111.85135	1192.59214	-779.96039	-21.93773	986.64287	-771.75540	-14.37275	1023.87728	-828.99799	88.91117	1050.27450	-827.39699	210.99937	1068.93317	-796.95314	216.91920	1031.54959	-811.75230	-366.03951	790.65331	-469.67478	-361.65667	794.79046	-677.09441	-350.40293	812.13084	-496.76517	-345.82262	809.13002	-636.26694	
995	9.94000000	-197.38056	461.67936	-382.08693	-155.98041	395.08106	-373.52032	-281.10645	84.52019	-381.07023	-334.34803	54.25113	-429.03064	-177.17820	42.30144	-347.63126	-137.24877	63.57088	-398.01363	-186.43807	461.46897	-769.25592	-152.49626	368.26344	-769.57429	-279.65079	93.01869	-788.38137	-337.23547	52.15054	-742.21518	-183.99662	44.13317	-827.98524	-131.35731	61.44148	-778.46021	-193.87785	288.61345	-364.82356	-225.18304	420.73128	-352.06294	-269.50930	313.30987	-347.14664	-226.76702	405.55387	-804.07327	-261.51533	288.93022	-818.86082	-278.61833	702.49660	-362.04888	-220.47548	606.13777	-361.90260	-313.64033	550.61120	-394.71431	-374.11103	650.07587	-390.88376	-268.65634	554.78819	-363.61761	-276.14532	728.22335	-780.73955	-208.89487	607.11638	-778.52577	-376.91063	678.40028	-770.60657	-308.56259	557.37135	-754.36716	-259.30329	854.69300	-465.28997	-441.84612	947.26597	-535.44172	-256.45598	857.54114	-677.02891	-439.31978	945.49667	-618.59290	-220.21384	1319.88051	-572.57620	-155.32585	1290.40507	-437.13819	-158.03206	1280.84167	-709.24162	-102.65899	1245.42158	-554.64298	-108.63875	1240.21692	-586.48488	-95.05665	1215.29035	-373.79902	-31.42988	1007.38491	-349.71128	-8.30243	1046.39535	-297.02815	76.00645	1087.49554	-310.52138	207.24141	1107.02063	-355.18263	217.04069	1075.04272	-336.24037	-115.45799	1201.06389	-780.24227	-26.54218	994.48850	-771.40756	-18.88905	1031.55782	-828.84153	84.50418	1057.27992	-827.55781	206.61404	1075.83281	-797.15738	212.41271	1038.35940	-811.74864	-361.91781	796.61216	-469.05908	-357.53861	800.50177	-676.48365	-346.39463	818.10628	-495.80187	-342.15197	815.13431	-635.47778	
